<svg height="512" viewBox="0 0 54 60" width="512" xmlns="http://www.w3.org/2000/svg"><g id="Page-1" fill="none" fill-rule="evenodd"><g id="028---Body-Nerves"><g fill-rule="nonzero"><path id="Shape" d="m38.19 59c.3797123.0030249.7283766-.209273.9-.548 1.4404423-2.5669266 1.9578424-5.5499185 1.466-8.452-2-9 2-14 2-14 2 6 2 8 2 12v.12c.0391828 3.3343748.8431563 6.615271 2.35 9.59l.65 1.29h5c.5815064-4.6485515.5815064-9.3514485 0-14-.527652-3.6463993-.8614545-7.3182274-1-11 0-4-3-6-2-8s2-9-7-12-10-3-10-7c-.0227252-1.56989447.3253768-3.12299126 1.016-4.533.1635974-.30976856.1531704-.68255875-.0274863-.98269845-.1806567-.30013971-.5051989-.48386124-.8555137-.48430155h-11.378c-.3503148.00044031-.674857.18416184-.8555137.48430155-.1806567.3001397-.1910837.67292989-.0274863.98269845.6906232 1.41000874 1.0387252 2.96310553 1.016 4.533 0 4-1 4-10 7-9 3-8 10-7 12s-2 4-2 8c-.13854549 3.6817726-.47234805 7.3536007-1 11-.58150642 4.6485515-.58150642 9.3514485 0 14h5l.65-1.29c1.50684367-2.974729 2.31081718-6.2556252 2.35-9.59v-.12c0-4 0-6 2-12 0 0 4 5 2 14-.490935 2.9024246.0275276 5.8854375 1.469 8.452.1716234.338727.5202877.5510249.9.548z" fill="#ffe0b2"/><path id="Shape" d="m52.556 45c-.527652-3.6463993-.8614545-7.3182274-1-11 0-4-3-6-2-8s2-9-7-12-10-3-10-7c-.0227252-1.56989447.3253768-3.12299126 1.016-4.533.1635974-.30976856.1531704-.68255875-.0274863-.98269845-.1806567-.30013971-.5051989-.48386124-.8555137-.48430155h-3c.3503148.00044031.674857.18416184.8555137.48430155.1806567.3001397.1910837.67292989.0274863.98269845-.6906232 1.41000874-1.0387252 2.96310553-1.016 4.533 0 4 1 4 10 7s8 10 7 12 2 4 2 8c.1385455 3.6817726.472348 7.3536007 1 11 .5815064 4.6485515.5815064 9.3514485 0 14h3c.5815064-4.6485515.5815064-9.3514485 0-14z" fill="#dfc49c"/><circle id="Oval" cx="35" cy="27" fill="#ffdc00" r="3"/><path id="Shape" d="m35 24c-.5281059.0027453-1.0459153.1463511-1.5.416.9273539.5298262 1.4996803 1.5159639 1.4996803 2.584s-.5723264 2.0541738-1.4996803 2.584c.4540847.2696489.9718941.4132547 1.5.416 1.6568542 0 3-1.3431458 3-3s-1.3431458-3-3-3z" fill="#fec108"/><circle id="Oval" cx="19" cy="34" fill="#ffdc00" r="3"/><path id="Shape" d="m19 31c-.5281059.0027453-1.0459153.1463511-1.5.416.9273539.5298262 1.4996803 1.5159639 1.4996803 2.584s-.5723264 2.0541738-1.4996803 2.584c.4540847.2696489.9718941.4132547 1.5.416 1.6568542 0 3-1.3431458 3-3s-1.3431458-3-3-3z" fill="#fec108"/><circle id="Oval" cx="34" cy="45" fill="#ffdc00" r="3"/><path id="Shape" d="m34 42c-.5281059.0027453-1.0459153.1463511-1.5.416.9273539.5298262 1.4996803 1.5159639 1.4996803 2.584s-.5723264 2.0541738-1.4996803 2.584c.4540847.2696489.9718941.4132547 1.5.416 1.6568542 0 3-1.3431458 3-3s-1.3431458-3-3-3z" fill="#fec108"/><circle id="Oval" cx="20" cy="52" fill="#ffdc00" r="3"/><path id="Shape" d="m20 49c-.5281059.0027453-1.0459153.1463511-1.5.416.9273539.5298262 1.4996803 1.5159639 1.4996803 2.584s-.5723264 2.0541738-1.4996803 2.584c.4540847.2696489.9718941.4132547 1.5.416 1.6568542 0 3-1.3431458 3-3s-1.3431458-3-3-3z" fill="#fec108"/><path id="Shape" d="m49.6 45.56c-.0065164-.1207552-.0205436-.2409878-.042-.36l-.2-1.478c-.4396778-3.224063-.7060607-6.4693939-.798-9.722-.0732714-1.2127773-.442719-2.3891043-1.076-3.426-.709-1.428-1.78-3.585-.588-5.963.4302639-1.2493838.380722-2.6141025-.139-3.829-.747-1.721-2.48-3.047-5.153-3.942l-3.416-1.121c-7.065-2.296-10.188-3.529-10.188-8.719v-6c0-.55228475-.4477153-1-1-1s-1 .44771525-1 1v6c0 5.19-3.123 6.423-10.188 8.719l-3.419 1.123c-2.67.893-4.4 2.219-5.15 3.938-.52613047 1.2321215-.56791407 2.6174085-.117 3.879 1.17 2.33.1 4.487-.644 5.982-.61647942 1.01775-.97424025 2.1710309-1.042 3.359-.09262349 3.2483235-.35967491 6.4893263-.8 9.709v.011l-.2 1.48c-.032.2-.042.32-.045.325-.24625714 2.082875-.37812173 4.177686-.395 6.275-.00443757.5519047.43909962 1.0030505.991 1.008h.009c.54917558.0000176.9956066-.442842 1-.992.01687983-2.0218227.14473887-4.0411943.383-6.049.007-.058.012-.1.013-.129v.013l.038-.244c0-.014 0-.028.006-.042l.019-.133c.042-.3.1-.735.163-1.256.45169786-3.3082221.72476057-6.6383855.818-9.976.088849-.90135.38563172-1.7697904.867-2.537.777-1.565 2.224-4.479.634-7.641-.20757727-.7417523-.15967658-1.5317615.136-2.243.513-1.179 1.841-2.135 3.946-2.839l3.408-1.119c4.126-1.341 7.543-2.458 9.569-4.707v16.086c0 1.981-1.413 3.259-4.2 3.8-.5060908.097342-.8553187.5633659-.8066526 1.0764302.048666.5130643.4792856.9051168.9946526.9055698.0640861-.0000853.1280263-.006111.191-.018 1.3854583-.2283348 2.6958478-.7859619 3.821-1.626v13.862c0 1.748-1.116 2.956-3.316 3.589-.478798.1377841-.783131.6070047-.7136924 1.100371s.4914636.860356.9896924.860629c.093394.0002997.1863456-.0128348.276-.039 3.073-.885 4.764-2.842 4.764-5.511v-2.852c.8237467.6300501 1.762674 1.0930594 2.764 1.363.0896544.0261652.182606.0392997.276.039.4982288-.000273.9202538-.3672627.9896924-.860629s-.2348944-.9625869-.7136924-1.100371c-2.2-.633-3.316-1.841-3.316-3.589v-13.862c1.1250542.8391785 2.4350697 1.3961066 3.82 1.624.0629737.011889.1269139.0179147.191.018.5117143-.0049959.9370857-.3955066.9857125-.9049297.0486267-.5094231-.2951842-.9733558-.7967125-1.0750703-2.787-.541-4.2-1.819-4.2-3.8v-9.086c2.026 2.249 5.443 3.366 9.569 4.707l3.4 1.117c2.109.706 3.437 1.662 3.95 2.842.2835402.6921856.3406011 1.4563819.163 2.183-1.616 3.223-.17 6.136.643 7.774.4658697.7449956.7517599 1.5882863.835 2.463.0926596 3.3336248.3653905 6.6598073.817 9.964.061.533.122.969.164 1.268l.019.133v.027l.037.166c0 .041.012.169.017.209.2393369 2.0084133.3681976 4.0284548.386 6.051.0043934.549158.4508244.9920176 1 .992h.009c.2653948-.0023753.5189595-.1101555.7048392-.2995989.1858796-.1894434.2888255-.445009.2861608-.7104011-.01585-2.0858682-.1493956-4.1691801-.4-6.24z" fill="#ef314c"/><path id="Shape" d="m52.556 34c-.0559856-1.8291457-.5648488-3.6158361-1.481-5.2-.593-1.185-.889-1.827-.625-2.356.967453-2.2680768.982228-4.8299152.041-7.109-1.194-2.884-3.758-5-7.619-6.287l-1.926-.638c-7.39-2.438-7.39-2.55-7.39-5.41-.0213849-1.41345223.2900004-2.81211685.909-4.083.3206469-.62515167.2906759-1.37253132-.079-1.97-.3612411-.59109957-1.0052641-.95028082-1.698-.947h-11.376c-.693447-.00398279-1.3383898.35528831-1.7.947-.3696587.59783785-.3996257 1.34549474-.079 1.971.62 1.27025006.9320932 2.66867401.911 4.082 0 2.86 0 2.972-7.39 5.413l-1.926.638c-3.861 1.287-6.425 3.4-7.619 6.287-.94122799 2.2790848-.926453 4.8409232.041 7.109.264.529-.032 1.171-.625 2.356-.9156749 1.583276-1.42452136 3.368877-1.481 5.197-.13944686 3.6341845-.46990312 7.258522-.99 10.858-.60060366 4.742393-.60060366 9.541607 0 14.284.07064202.4924379.49252097.8580663.99.858h5c.37763891-.0000108.72306249-.2127577.893-.55l.652-1.293c1.57231535-3.1149402 2.4120225-6.5479914 2.455-10.037v-.12c-.1577134-3.2204381.2677891-6.442874 1.256-9.512 1.4598309 3.5872505 1.7280192 7.5487247.765 11.3-.5525922 3.1255106-.0048407 6.3459357 1.55 9.113.3433878.675356 1.0373593 1.1002444 1.795 1.099h22.38c.7567821-.0000773 1.4493773-.4252194 1.792-1.1 1.5549139-2.7674026 2.1026628-5.988166 1.55-9.114-.9732859-3.7532815-.7066881-7.7206778.76-11.31.9924423 3.0724164 1.420676 6.2990757 1.264 9.524v.126c.0437021 3.4881946.8841021 6.9202556 2.457 10.034l.65 1.29c.1699375.3372423.5153611.5499892.893.55h5c.497479.0000663.919358-.3655621.99-.858.6006037-4.742393.6006037-9.541607 0-14.284-.5200969-3.599478-.8505531-7.2238155-.99-10.858zm-24.556-31.991 4.68.007c-.7603921 1.55017899-1.1454307 3.25750302-1.124 4.984 0 4.418 1.509 4.917 8.763 7.313l1.92.636c3.286 1.1 5.442 2.829 6.405 5.154.7245318 1.743265.7306424 3.702249.017 5.45-.723 1.447-.038 2.818.625 4.144.7694504 1.3075424 1.2055871 2.7842256 1.27 4.3.135443 3.7291282.4722673 7.4482152 1.009 11.141.5264744 4.2690822.5647211 8.5842566.114 12.862h-3.507l-.372-.737c-1.4345358-2.8370015-2.2020578-5.9642092-2.244-9.143v-.12c0-4.1 0-6.162-2.052-12.316-.1156271-.347824-.4122811-.6045157-.7731101-.6689644-.360829-.0644486-.7280021.0736751-.9568899.3599644-.174.22-4.275 5.482-2.2 14.841.4490849 2.6754622-.0360712 5.4239742-1.374 7.784h-.008l-22.381.007c-1.3443516-2.3599235-1.8345275-5.1109827-1.388-7.79 2.077-9.36-2.023-14.617-2.197-14.842-.1900804-.237411-.4778711-.375418-.782-.375-.0587045-.0001312-.1172927.0052254-.175.016-.3605505.0643141-.6570989.3205811-.773.668-2.052 6.154-2.052 8.216-2.052 12.316v.114c-.04176792 3.1797709-.80928701 6.3079926-2.244 9.146l-.372.74h-3.507c-.45055522-4.2764151-.41230847-8.5902459.114-12.858.53665447-3.6931293.87347823-7.4125448 1.009-11.142.0644129-1.5157744.50054955-2.9924576 1.27-4.3.663-1.326 1.348-2.7.625-4.144-.71364238-1.747751-.70753179-3.706735.017-5.45.963-2.325 3.119-4.059 6.4-5.154l1.92-.636c7.254-2.4 8.763-2.9 8.763-7.313.0209356-1.73247704-.3668892-3.44548388-1.132-5l4.693.003z" fill="#000"/></g><circle id="Oval" cx="19" cy="34" r="3" stroke="#000" stroke-linecap="round" stroke-linejoin="round" stroke-width="2"/><circle id="Oval" cx="20" cy="52" r="3" stroke="#000" stroke-linecap="round" stroke-linejoin="round" stroke-width="2"/><circle id="Oval" cx="34" cy="45" r="3" stroke="#000" stroke-linecap="round" stroke-linejoin="round" stroke-width="2"/><circle id="Oval" cx="35" cy="27" r="3" stroke="#000" stroke-linecap="round" stroke-linejoin="round" stroke-width="2"/></g></g></svg>